<?xml version="1.0" standalone="no"?>
<!DOCTYPE svg PUBLIC "-//W3C//DTD SVG 20010904//EN"
 "http://www.w3.org/TR/2001/REC-SVG-20010904/DTD/svg10.dtd">
<svg version="1.0" xmlns="http://www.w3.org/2000/svg"
 width="500.000000pt" height="500.000000pt" viewBox="0 0 500.000000 500.000000"
 preserveAspectRatio="xMidYMid meet">

<g transform="translate(0.000000,500.000000) scale(0.100000,-0.100000)"
fill="#000000" stroke="none">
<path d="M2421 3754 c28 -33 49 -82 49 -115 0 -33 -28 -66 -118 -137 -62 -49
-86 -102 -87 -189 0 -103 -17 -53 -20 60 -2 97 -18 136 -28 67 -3 -26 -17 -57
-36 -80 -48 -60 -48 -74 9 -183 57 -114 64 -166 29 -223 -11 -19 -22 -34 -24
-34 -2 0 -3 31 -4 68 -1 115 -44 200 -126 247 -54 32 -61 31 -35 -4 55 -79 64
-177 25 -298 -29 -91 -31 -120 -10 -171 20 -47 50 -79 97 -103 51 -26 56 -24
24 10 -52 54 -69 178 -30 228 12 16 13 14 14 -19 0 -56 28 -117 56 -124 80
-20 110 43 83 177 -16 86 -13 144 12 189 23 40 58 67 44 33 -31 -78 -27 -130
17 -199 32 -52 44 -54 27 -5 -17 48 -3 93 52 175 27 41 55 89 63 108 20 49 29
129 17 161 -6 15 -7 27 -2 27 15 0 41 -78 41 -123 0 -23 -9 -74 -20 -112 -11
-38 -20 -88 -20 -110 0 -51 28 -112 69 -149 l31 -30 0 56 c0 64 26 111 77 140
l31 19 -20 -38 c-20 -39 -20 -82 -2 -228 4 -37 1 -66 -14 -108 l-19 -58 30 28
c37 35 68 101 70 152 2 51 12 44 27 -19 16 -66 6 -127 -30 -183 l-29 -46 47
14 c64 20 121 62 146 110 29 54 29 173 1 230 l-20 40 -6 -37 c-16 -100 -87
-120 -105 -30 -5 23 2 49 27 103 32 68 32 73 15 83 -97 57 -119 92 -113 175 4
54 4 54 -14 32 -26 -32 -38 -84 -29 -126 9 -42 -1 -45 -29 -9 -27 34 -27 84 0
160 25 69 28 163 7 214 l-15 35 -8 -45 c-4 -25 -17 -63 -28 -85 l-21 -40 -7
75 c-9 112 -58 191 -151 244 -33 19 -33 19 -17 0z"/>
<path d="M1951 2654 c-15 -34 -24 -118 -17 -156 5 -29 20 -41 128 -108 148
-91 172 -105 165 -92 -4 5 -67 46 -142 92 -74 46 -135 89 -135 96 0 8 68 -28
155 -81 l155 -95 48 24 47 24 -206 100 -207 100 7 33 c9 40 14 40 94 -7 32
-19 62 -32 67 -29 5 3 77 -31 161 -75 120 -63 158 -79 173 -72 21 9 1 21 -355
205 l-127 65 -11 -24z"/>
<path d="M2491 2396 c-299 -155 -549 -288 -554 -297 -38 -61 91 -179 196 -179
39 0 84 26 482 271 242 150 442 274 445 276 11 10 3 150 -11 179 l-14 31 -544
-281z m559 191 c-1 -32 -1 -32 -328 -195 -180 -89 -320 -161 -312 -159 8 3 26
7 40 11 14 4 -18 -16 -70 -44 -186 -100 -180 -95 -173 -138 l6 -37 -41 38
c-23 20 -47 37 -52 37 -26 0 -4 20 65 59 41 24 75 45 75 47 0 1 -25 -6 -55
-16 -30 -10 -55 -17 -55 -15 0 2 136 74 303 161 166 86 336 175 377 196 48 26
66 32 50 18 -24 -21 39 10 124 61 36 22 46 17 46 -24z m-11 -118 c-8 -5 -194
-120 -414 -257 -391 -242 -400 -247 -407 -223 -4 14 -6 26 -5 26 1 1 81 55
177 120 124 83 165 107 140 81 -19 -21 -56 -49 -83 -63 -26 -15 -45 -28 -43
-30 9 -9 111 48 366 205 151 93 277 165 279 159 2 -5 -3 -14 -10 -18z m-944
-368 c46 -21 89 -64 104 -102 23 -63 -56 -91 -144 -50 -45 21 -99 75 -110 109
-17 57 68 81 150 43z"/>
<path d="M2933 2544 c-35 -19 -63 -37 -63 -40 0 -6 90 41 115 60 32 25 14 18
-52 -20z"/>
<path d="M2253 2160 c-29 -17 -53 -33 -53 -35 0 -7 69 29 95 49 31 24 15 19
-42 -14z"/>
<path d="M1973 2075 c-3 -9 -3 -19 1 -22 3 -4 6 1 6 10 0 13 9 17 36 17 46 0
98 -25 129 -62 26 -31 32 -30 15 2 -28 53 -171 94 -187 55z"/>
<path d="M2007 2053 c-24 -23 28 -83 73 -83 8 0 -1 8 -20 18 -44 24 -60 49
-40 62 8 5 10 10 4 10 -6 0 -14 -3 -17 -7z"/>
<path d="M2015 2565 c11 -9 38 -25 60 -36 29 -14 34 -15 20 -4 -11 9 -38 25
-60 36 -29 14 -34 15 -20 4z"/>
<path d="M2120 2540 c35 -24 54 -31 30 -11 -14 11 -29 21 -35 21 -5 0 -3 -5 5
-10z"/>
<path d="M2755 2241 c-3 -5 17 -22 45 -37 28 -15 49 -29 47 -30 -2 -2 -27 5
-55 16 -29 11 -52 18 -52 16 0 -3 26 -19 58 -37 100 -57 97 -49 41 -98 l-51
-44 3 38 c4 37 3 38 -66 76 l-70 38 -29 -18 -28 -19 93 -62 c52 -35 95 -64 96
-64 1 -1 -1 -14 -5 -28 l-7 -25 -118 74 c-66 41 -121 72 -124 70 -2 -3 62 -46
142 -96 128 -79 153 -91 191 -91 107 0 230 112 195 177 -10 21 -257 153 -284
153 -9 0 -18 -4 -22 -9z m289 -142 c41 -59 -76 -168 -181 -169 -34 0 -46 5
-58 24 -15 22 -15 28 -2 53 35 66 110 112 184 113 32 0 45 -5 57 -21z"/>
<path d="M2898 2070 c-20 -11 -44 -30 -52 -42 -26 -36 -18 -42 10 -9 33 39 55
51 113 61 l46 8 -40 0 c-22 1 -57 -8 -77 -18z"/>
<path d="M2979 2051 c21 -13 6 -38 -36 -60 -21 -11 -32 -20 -25 -21 24 0 71
30 77 50 7 23 -1 40 -18 40 -8 0 -7 -3 2 -9z"/>
<path d="M2690 2187 c0 -7 115 -77 126 -77 10 0 -16 18 -78 54 -27 16 -48 26
-48 23z"/>
<path d="M1603 1725 c-38 -16 -73 -68 -73 -108 0 -36 23 -81 52 -101 48 -34
159 -10 144 30 -6 15 -8 16 -24 0 -26 -23 -68 -20 -86 6 -26 36 -21 104 10
134 18 19 31 24 47 19 37 -11 50 -11 54 1 4 12 -47 34 -76 34 -9 -1 -31 -7
-48 -15z"/>
<path d="M1860 1726 c0 -2 -18 -54 -40 -115 -36 -102 -38 -111 -20 -111 12 0
21 10 25 30 6 27 10 30 45 30 33 0 39 -4 49 -30 8 -24 16 -30 40 -30 17 0 31
1 31 3 0 1 -18 52 -39 112 -35 99 -41 110 -65 113 -14 2 -26 1 -26 -2z m28
-103 c10 -31 10 -33 -14 -33 -27 0 -29 6 -14 46 12 31 13 30 28 -13z"/>
<path d="M2050 1616 c0 -96 3 -116 15 -116 12 0 15 15 16 68 l1 67 21 -68 c19
-62 23 -68 46 -65 20 3 28 14 47 68 l22 65 1 -67 1 -68 30 0 30 0 0 116 0 115
-32 -3 c-30 -3 -33 -7 -56 -76 -13 -40 -26 -71 -28 -69 -2 2 -15 35 -28 73
-21 64 -25 69 -54 72 l-32 3 0 -115z"/>
<path d="M2350 1615 l0 -115 29 0 c27 0 30 3 33 38 3 36 4 37 45 40 75 5 108
78 58 127 -21 22 -33 25 -95 25 l-70 0 0 -115z m118 44 c3 -39 -17 -65 -43
-55 -10 4 -15 20 -15 51 0 45 1 46 28 43 23 -3 27 -8 30 -39z"/>
<path d="M2730 1615 l0 -115 30 0 c29 0 30 2 30 44 0 41 2 45 27 48 39 4 42
28 4 28 -29 0 -31 2 -31 40 l0 40 45 0 c33 0 45 4 45 15 0 12 -15 15 -75 15
l-75 0 0 -115z"/>
<path d="M2940 1615 l0 -115 30 0 30 0 0 115 0 115 -30 0 -30 0 0 -115z"/>
<path d="M3070 1615 l0 -115 30 0 c29 0 30 2 30 45 0 59 19 59 43 0 17 -41 22
-45 53 -45 l34 0 -24 48 c-24 47 -24 48 -5 71 24 30 24 52 -2 85 -19 24 -27
26 -90 26 l-69 0 0 -115z m108 57 c4 -26 -13 -52 -34 -52 -10 0 -14 13 -14 41
0 36 2 40 23 37 14 -2 23 -11 25 -26z"/>
<path d="M3310 1615 l0 -115 85 0 c69 0 85 3 85 15 0 12 -13 15 -55 15 l-55 0
0 34 c0 30 4 35 27 38 39 4 42 28 4 28 -29 0 -31 3 -31 35 l0 35 50 0 c38 0
50 4 50 15 0 12 -16 15 -80 15 l-80 0 0 -115z"/>
<path d="M1794 1345 c9 -13 16 -33 16 -45 0 -24 20 -27 20 -2 0 9 7 26 15 36
22 29 18 45 -5 18 -19 -23 -19 -23 -30 -2 -6 11 -16 20 -22 20 -6 0 -4 -10 6
-25z"/>
<path d="M1952 1358 c-36 -36 7 -88 62 -74 30 7 45 48 26 71 -15 18 -71 20
-88 3z m76 -24 c4 -26 -21 -48 -47 -39 -45 14 -30 69 18 63 17 -2 27 -10 29
-24z"/>
<path d="M2120 1337 c0 -38 15 -57 45 -57 31 0 45 19 44 60 l-1 35 -8 -33
c-10 -42 -22 -55 -43 -46 -11 4 -17 18 -17 40 0 19 -4 34 -10 34 -5 0 -10 -15
-10 -33z"/>
<path d="M2291 1323 c1 -27 4 -38 6 -25 6 28 38 29 53 2 6 -11 15 -20 20 -20
6 0 5 8 -2 19 -9 15 -9 23 1 35 19 23 5 36 -40 36 l-39 0 1 -47z m60 22 c0 -5
-12 -11 -26 -13 -18 -2 -25 1 -25 13 0 12 7 15 25 13 14 -2 26 -7 26 -13z"/>
<path d="M2552 1358 c-28 -28 -7 -78 33 -78 12 0 26 5 33 12 9 9 12 9 12 0 0
-7 5 -12 10 -12 6 0 10 11 10 25 0 22 -4 25 -37 24 -36 -1 -36 -2 -9 -8 26 -5
27 -7 13 -19 -32 -27 -82 13 -55 45 8 10 22 13 40 9 18 -3 27 -2 23 4 -9 14
-59 12 -73 -2z"/>
<path d="M2720 1337 c0 -38 15 -57 45 -57 31 0 45 19 44 60 l-1 35 -8 -33
c-10 -42 -22 -55 -43 -46 -11 4 -17 18 -17 40 0 19 -4 34 -10 34 -5 0 -10 -15
-10 -33z"/>
<path d="M2893 1325 c0 -27 2 -38 4 -22 2 15 2 37 0 50 -2 12 -4 0 -4 -28z"/>
<path d="M2980 1325 c0 -43 1 -45 30 -45 29 0 70 29 70 49 0 20 -33 41 -66 41
-34 0 -34 0 -34 -45z m70 20 c18 -21 5 -45 -25 -45 -21 0 -25 5 -25 30 0 23 5
30 19 30 10 0 24 -7 31 -15z"/>
<path d="M3150 1325 l0 -45 38 1 c30 2 32 3 10 6 -16 2 -28 10 -28 18 0 8 12
16 28 18 l27 4 -27 2 c-17 0 -28 7 -28 15 0 8 12 17 28 19 22 3 20 4 -10 6
l-38 1 0 -45z"/>
</g>
</svg>
